<!DOCTYPE svg PUBLIC "-//W3C//DTD SVG 1.1//EN" "http://www.w3.org/Graphics/SVG/1.1/DTD/svg11.dtd">
<!-- Uploaded to: SVG Repo, www.svgrepo.com, Transformed by: SVG Repo Mixer Tools -->
<svg width="183px" height="183px" viewBox="-9.36 -9.36 42.72 42.72" xmlns="http://www.w3.org/2000/svg" id="price-tag" class="icon glyph" fill="#b40e0e" stroke="#b40e0e" stroke-width="0.00024000000000000003">
<g id="SVGRepo_bgCarrier" stroke-width="0"/>
<g id="SVGRepo_tracerCarrier" stroke-linecap="round" stroke-linejoin="round"/>
<g id="SVGRepo_iconCarrier">
<path d="M20,2H14a1,1,0,0,0-.7.29L3,12.55a2,2,0,0,0,0,2.83L8.62,21a2,2,0,0,0,1.41.59h0A2,2,0,0,0,11.45,21L21.71,10.7A1,1,0,0,0,22,10V4A2,2,0,0,0,20,2ZM16.5,9A1.5,1.5,0,1,1,18,7.5,1.5,1.5,0,0,1,16.5,9Z" style="fill:#bd0f3b"/>
</g>
</svg>